<?xml version='1.0' encoding='iso-8859-1'?>
<svg version="1.1" fill="#cc3399" xmlns="http://www.w3.org/2000/svg" viewBox="0 0 20.303 20.303" xmlns:xlink="http://www.w3.org/1999/xlink" enable-background="new 0 0 20.303 20.303">
  <g>
    <path d="m20.054,16.259l-6.106-6.956c0.828-1.108 1.51-2.331 2.006-3.65 0.31-0.824-0.482-1.616-1.306-1.306-1.319,0.496-2.542,1.179-3.65,2.006l-6.955-6.105c-0.396-0.347-0.994-0.328-1.367,0.045l-1.128,1.128c-0.356,0.357-0.392,0.923-0.082,1.321l2.643,3.396c0.508,0.653 1.056,1.274 1.641,1.859l1.868,1.868c-0.282,0.409-0.55,0.829-0.792,1.267-0.65,1.177-1.369,2.313-2.242,3.336-0.23,0.269-0.433,0.511-0.64,0.757l-2.136-1.498c-0.398-0.279-0.938-0.232-1.281,0.112l-.235,.235c-0.354,0.354-0.392,0.916-0.087,1.315l1.698,2.22c-0.294,0.329-0.603,0.668-0.946,1.031-0.516,0.516 0.191,1.223 0.707,0.707 0.364-0.343 0.702-0.652 1.031-0.946l2.22,1.698c0.398,0.304 0.96,0.267 1.315-0.087l.235-.235c0.343-0.343 0.39-0.884 0.112-1.281l-1.498-2.136c0.246-0.207 0.487-0.41 0.756-0.64 1.022-0.873 2.159-1.591 3.336-2.242 0.437-0.242 0.857-0.509 1.267-0.792l1.868,1.868c0.585,0.585 1.206,1.133 1.859,1.641l3.396,2.643c0.398,0.31 0.965,0.275 1.321-0.082l1.128-1.128c0.372-0.374 0.392-0.972 0.044-1.369z"/>
  </g>
</svg>
