<?xml version="1.0" encoding="iso-8859-1"?>
<!-- Generator: Adobe Illustrator 19.0.0, SVG Export Plug-In . SVG Version: 6.00 Build 0)  -->
<svg version="1.1" id="Capa_1" fill="#33cc33" xmlns="http://www.w3.org/2000/svg" xmlns:xlink="http://www.w3.org/1999/xlink" x="0px" y="0px"
	 viewBox="0 0 512 512" style="enable-background:new 0 0 512 512;" xml:space="preserve">
<g>
	<g>
		<path d="M494.933,460.8H460.8v-82.944l50.005-83.371c2.397-4.065,1.045-9.303-3.019-11.701c-1.309-0.772-2.8-1.181-4.319-1.185
			h-332.8v-48.213l31.573-39.595c0.271-0.214,0.502-0.474,0.683-0.768c0.315-0.357,0.574-0.76,0.768-1.195
			c0.177-0.296,0.32-0.611,0.427-0.939c0.247-0.483,0.419-1.001,0.512-1.536c0.104-0.535,0.161-1.077,0.171-1.621v-76.8
			c-0.014-4.707-3.826-8.519-8.533-8.533h-8.533V76.8c-0.014-4.707-3.826-8.519-8.533-8.533H128V34.133
			c0-4.713-3.82-8.533-8.533-8.533s-8.533,3.821-8.533,8.533v34.133H93.867V8.533C93.867,3.82,90.046,0,85.333,0
			S76.8,3.82,76.8,8.533v59.733H25.6c-4.707,0.014-8.519,3.826-8.533,8.533v25.6H8.533c-4.707,0.014-8.519,3.826-8.533,8.533v76.8
			c0.01,0.544,0.067,1.087,0.171,1.621c0.062,0.384,0.177,0.757,0.341,1.109c0.147,0.476,0.347,0.934,0.597,1.365
			c0.174,0.445,0.435,0.852,0.768,1.195c0.181,0.294,0.412,0.554,0.683,0.768l31.573,39.595V460.8H17.067
			C7.652,460.828,0.028,468.452,0,477.867v25.6c0.014,4.707,3.826,8.519,8.533,8.533h494.933c4.707-0.014,8.519-3.826,8.533-8.533
			v-25.6C511.973,468.452,504.348,460.828,494.933,460.8z M17.067,119.467H25.6h162.133v25.6H17.067V119.467z M17.067,179.2v-17.067
			h170.667V179.2H17.067z M136.533,435.2c-0.014,4.707-3.826,8.519-8.533,8.533H76.8c-4.707-0.014-8.519-3.826-8.533-8.533v-34.133
			c0.014-4.707,3.826-8.519,8.533-8.533H128c4.707,0.014,8.519,3.826,8.533,8.533V435.2z M136.533,366.933
			c-0.014,4.707-3.826,8.519-8.533,8.533H76.8c-4.707-0.014-8.519-3.826-8.533-8.533V332.8c0.014-4.707,3.826-8.519,8.533-8.533H128
			c4.707,0.014,8.519,3.826,8.533,8.533V366.933z M136.533,298.667c-0.014,4.707-3.826,8.519-8.533,8.533H76.8
			c-4.707-0.014-8.519-3.826-8.533-8.533v-34.133c0.014-4.707,3.826-8.519,8.533-8.533H128c4.707,0.014,8.519,3.826,8.533,8.533
			V298.667z M204.8,460.8h-34.133v-34.133H204.8V460.8z M204.8,409.6h-34.133V384H204.8V409.6z M264.533,460.8h-42.667v-34.133
			h42.667V460.8z M264.533,409.6h-42.667V384h42.667V409.6z M332.8,460.8h-51.2v-34.133h51.2V460.8z M332.8,409.6h-51.2V384h51.2
			V409.6z M392.533,460.8h-42.667v-34.133h42.667V460.8z M392.533,409.6h-42.667V384h42.667V409.6z M443.733,460.8H409.6v-34.133
			h34.133V460.8z M443.733,409.6H409.6V384h34.133V409.6z"/>
	</g>
</g>
<g>
	<g>
		<rect x="85.333" y="273.067" width="34.133" height="17.067"/>
	</g>
</g>
<g>
	<g>
		<rect x="85.333" y="341.333" width="34.133" height="17.067"/>
	</g>
</g>
<g>
	<g>
		<rect x="85.333" y="409.6" width="34.133" height="17.067"/>
	</g>
</g>
<g>
</g>
<g>
</g>
<g>
</g>
<g>
</g>
<g>
</g>
<g>
</g>
<g>
</g>
<g>
</g>
<g>
</g>
<g>
</g>
<g>
</g>
<g>
</g>
<g>
</g>
<g>
</g>
<g>
</g>
</svg>
