<?xml version="1.0" encoding="iso-8859-1"?>
<!-- Generator: Adobe Illustrator 16.0.0, SVG Export Plug-In . SVG Version: 6.00 Build 0)  -->
<!DOCTYPE svg PUBLIC "-//W3C//DTD SVG 1.1//EN" "http://www.w3.org/Graphics/SVG/1.1/DTD/svg11.dtd">
<svg version="1.1" id="Capa_1" fill="#cc3399" xmlns="http://www.w3.org/2000/svg" xmlns:xlink="http://www.w3.org/1999/xlink" x="0px" y="0px"
	 width="587.41px" height="587.41px" viewBox="0 0 587.41 587.41" style="enable-background:new 0 0 587.41 587.41;"
	 xml:space="preserve">
<g>
	<path d="M322.278,491.188v96.223c139.607-13.488,250.767-124.647,264.255-264.26h-96.218
		C477.726,409.749,408.914,478.565,322.278,491.188z"/>
	<g>
		<path d="M355.957,256.29c13.421,22.893,13.421,51.341,0,74.234l52.455,52.493c40.976-52.78,40.976-126.402,0-179.216
			L355.957,256.29z"/>
		<path d="M329.98,230.313l52.455-52.493c-52.78-40.976-126.44-40.976-179.215,0l52.494,52.493
			C278.601,216.858,307.087,216.858,329.98,230.313z"/>
		<path d="M293.705,0C142.039,0,15.331,116.041,0.873,266.01h96.213c14.114-98.125,97.179-171.083,196.62-171.083
			c99.44,0,182.505,72.957,196.62,171.083h96.213C572.079,116.041,445.375,0,293.705,0z"/>
		<path d="M97.095,323.15H0.877c13.488,139.607,124.647,250.763,264.255,264.26v-96.223
			C178.534,478.569,109.723,409.749,97.095,323.15z"/>
		<path d="M176.469,383.117l52.9-52.666c-13.244-22.82-13.043-51.322,0.363-74.124l-52.489-52.527
			C136.325,256.495,135.766,330.39,176.469,383.117z"/>
		<path d="M255.092,356.428l-52.871,52.637c52.78,41.435,127.209,41.086,180.214-0.071L329.942,356.5
			C306.877,370.05,278.042,370.093,255.092,356.428z"/>
	</g>
</g>
<g>
</g>
<g>
</g>
<g>
</g>
<g>
</g>
<g>
</g>
<g>
</g>
<g>
</g>
<g>
</g>
<g>
</g>
<g>
</g>
<g>
</g>
<g>
</g>
<g>
</g>
<g>
</g>
<g>
</g>
</svg>
