<?xml version="1.0" encoding="iso-8859-1"?>
<!-- Generator: Adobe Illustrator 19.0.0, SVG Export Plug-In . SVG Version: 6.00 Build 0)  -->
<svg version="1.1" id="Capa_1" fill="#fff" xmlns="http://www.w3.org/2000/svg" xmlns:xlink="http://www.w3.org/1999/xlink" x="0px" y="0px"
	 viewBox="0 0 511.998 511.998" style="enable-background:new 0 0 511.998 511.998;" xml:space="preserve">
<g>
	<g>
		<path d="M508.368,5.675c-2.301-1.903-5.332-2.684-8.264-2.125L348.094,32.489L165.805,1.137c-0.558-0.095-1.121-0.137-1.685-0.138
			c-0.022,0-0.043-0.003-0.066-0.003c-0.005,0-0.01,0.001-0.015,0.001c-0.24,0.002-0.479,0.018-0.719,0.036
			c-0.494,0.036-0.979,0.104-1.451,0.208L8.047,32.153C3.366,33.093,0,37.204,0,41.977V499.28c0,2.97,1.317,5.787,3.598,7.691
			c2.281,1.904,5.287,2.699,8.21,2.17l152.399-27.596l182.387,29.331c0.114,0.018,0.229,0.027,0.344,0.041
			c0.109,0.014,0.218,0.029,0.329,0.039c0.306,0.028,0.612,0.046,0.919,0.046c0.004,0,0.008,0,0.011,0
			c0.32,0,0.638-0.017,0.957-0.048c0.157-0.015,0.311-0.043,0.466-0.065c0.138-0.02,0.278-0.032,0.416-0.058l0.144-0.027
			c0.012-0.002,0.025-0.004,0.038-0.007l153.613-28.888c4.737-0.891,8.168-5.029,8.168-9.849V13.396
			C512,10.41,510.668,7.579,508.368,5.675z M491.957,463.747L358.206,488.9v-78.328c0-5.535-4.488-10.021-10.021-10.021
			c-5.534,0-10.021,4.487-10.021,10.021v78.648l-164.088-26.387V136.963c0-5.535-4.488-10.021-10.021-10.021
			s-10.021,4.487-10.021,10.021V463.02l-133.99,24.262V50.185l133.99-26.925v48.563c0,5.535,4.488,10.021,10.021,10.021
			s10.021-4.487,10.021-10.021V22.897l164.088,28.222v297.321c0,5.535,4.488,10.021,10.021,10.021
			c5.534,0,10.021-4.487,10.021-10.021V50.968l133.751-25.462V463.747z"/>
	</g>
</g>
<g>
	<g>
		<path d="M260.608,140.996l12.957-12.957c3.913-3.913,3.913-10.259,0-14.173c-3.914-3.913-10.258-3.913-14.173,0l-12.957,12.957
			l-12.957-12.957c-3.914-3.913-10.258-3.913-14.173,0c-3.913,3.913-3.913,10.259,0,14.173l12.957,12.957l-12.957,12.957
			c-3.913,3.913-3.913,10.259,0,14.173c1.957,1.957,4.522,2.935,7.086,2.935s5.129-0.978,7.086-2.935l12.957-12.957l12.959,12.957
			c1.957,1.957,4.522,2.935,7.086,2.935c2.565,0,5.129-0.978,7.086-2.935c3.913-3.913,3.913-10.259,0-14.173L260.608,140.996z"/>
	</g>
</g>
<g>
	<g>
		<path d="M456.747,373.492l12.957-12.957c3.913-3.913,3.913-10.259,0-14.173c-3.914-3.913-10.258-3.913-14.173,0l-12.957,12.957
			l-12.957-12.957c-3.914-3.913-10.258-3.913-14.173,0c-3.913,3.913-3.913,10.259,0,14.173l12.957,12.957l-12.957,12.957
			c-3.912,3.914-3.912,10.26,0.002,14.173c1.957,1.957,4.522,2.935,7.086,2.935c2.565,0,5.129-0.978,7.086-2.935l12.957-12.957
			l12.957,12.957c1.957,1.957,4.522,2.935,7.086,2.935c2.564,0,5.129-0.978,7.086-2.935c3.913-3.913,3.913-10.259,0-14.173
			L456.747,373.492z"/>
	</g>
</g>
<g>
	<g>
		<path d="M101.439,373.493l12.957-12.957c3.914-3.913,3.914-10.259,0-14.172c-3.914-3.913-10.258-3.913-14.173,0l-12.957,12.957
			l-12.957-12.957c-3.914-3.913-10.258-3.913-14.173,0c-3.913,3.913-3.913,10.259,0,14.173l12.957,12.957l-12.955,12.956
			c-3.913,3.913-3.913,10.259,0,14.173c1.957,1.957,4.522,2.935,7.086,2.935s5.129-0.978,7.086-2.935l12.957-12.957l12.957,12.957
			c1.957,1.957,4.522,2.935,7.086,2.935c2.565,0,5.129-0.978,7.086-2.935c3.913-3.913,3.913-10.259,0-14.173L101.439,373.493z"/>
	</g>
</g>
<g>
	<g>
		<path d="M246.157,185.926c-5.534,0-10.021,4.487-10.021,10.021v0.501c0,5.535,4.487,10.021,10.021,10.021
			c5.534,0,10.021-4.487,10.021-10.021v-0.501C256.178,190.413,251.69,185.926,246.157,185.926z"/>
	</g>
</g>
<g>
	<g>
		<polygon points="246.566,235.494 249.983,235.406 256.584,235.223 		"/>
	</g>
</g>
<g>
	<g>
		<path d="M282.993,343.048c-0.199-0.205-0.399-0.412-0.595-0.618c-3.817-4.008-10.16-4.164-14.168-0.347s-4.164,10.16-0.348,14.168
			c0.252,0.264,0.504,0.525,0.759,0.787c1.964,2.015,4.57,3.026,7.177,3.026c2.521,0,5.046-0.946,6.994-2.845
			C286.774,353.356,286.855,347.011,282.993,343.048z"/>
	</g>
</g>
<g>
	<g>
		<path d="M349.98,367.82l-0.939-0.093c-5.491-0.567-10.422,3.451-10.982,8.958c-0.559,5.507,3.451,10.423,8.958,10.981l1.003,0.1
			c0.334,0.033,0.663,0.048,0.991,0.048c5.094,0,9.454-3.867,9.961-9.042C359.515,373.264,355.487,368.36,349.98,367.82z"/>
	</g>
</g>
<g>
	<g>
		<path d="M312.981,360.658l-0.858-0.287c-5.243-1.769-10.93,1.045-12.7,6.289c-1.771,5.243,1.045,10.929,6.289,12.7l0.993,0.332
			c1.042,0.344,2.099,0.507,3.14,0.507c4.208,0,8.126-2.673,9.515-6.887C321.094,368.057,318.238,362.391,312.981,360.658z"/>
	</g>
</g>
<g>
	<g>
		<path d="M265.888,312.6l-0.256-0.824c-1.609-5.295-7.209-8.284-12.504-6.672c-5.295,1.609-8.283,7.208-6.672,12.504
			c0.105,0.349,0.213,0.695,0.322,1.04c1.352,4.271,5.298,7,9.551,7c1.002,0,2.021-0.151,3.026-0.469
			C264.633,323.508,267.557,317.876,265.888,312.6z"/>
	</g>
</g>
<g>
	<g>
		<path d="M258.895,275.373l-0.094-0.939c-0.548-5.507-5.459-9.531-10.964-8.979c-5.508,0.548-9.528,5.458-8.98,10.964l0.102,1.004
			c0.53,5.157,4.882,8.997,9.957,8.997c0.342,0,0.687-0.018,1.036-0.053C255.457,285.801,259.461,280.879,258.895,275.373z"/>
	</g>
</g>
<g>
	<g>
		<path d="M256.586,235.237l-6.602,0.169l-13.434,0.372l0.024,0.933c0.13,5.451,4.59,9.78,10.013,9.78
			c0.082,0,0.164-0.001,0.247-0.003c5.533-0.133,9.91-4.727,9.777-10.26L256.586,235.237z"/>
	</g>
</g>
<g>
	<g>
		<path d="M388.793,369.484h-0.472c-0.01,0-0.02,0-0.03,0c-5.521,0-10.003,4.468-10.02,9.992c-0.016,5.534,4.457,10.033,9.992,10.05
			h0.53c5.534,0,10.021-4.487,10.021-10.021S394.327,369.484,388.793,369.484z"/>
	</g>
</g>
<g>
	<g>
		<path d="M164.182,93.871h-0.2c-5.534,0-10.021,4.487-10.021,10.021s4.488,10.021,10.021,10.021h0.2
			c5.534,0,10.021-4.487,10.021-10.021S169.716,93.871,164.182,93.871z"/>
	</g>
</g>
<g>
</g>
<g>
</g>
<g>
</g>
<g>
</g>
<g>
</g>
<g>
</g>
<g>
</g>
<g>
</g>
<g>
</g>
<g>
</g>
<g>
</g>
<g>
</g>
<g>
</g>
<g>
</g>
<g>
</g>
</svg>
