<?xml version="1.0" encoding="iso-8859-1"?>
<!-- Generator: Adobe Illustrator 19.0.0, SVG Export Plug-In . SVG Version: 6.00 Build 0)  -->
<svg version="1.1" id="Capa_1" fill="#fff" xmlns="http://www.w3.org/2000/svg" xmlns:xlink="http://www.w3.org/1999/xlink" x="0px" y="0px"
	 viewBox="0 0 512 512" style="enable-background:new 0 0 512 512;" xml:space="preserve">
<g>
	<g>
		<path d="M190.36,99.33v180.807l52.884-90.656c2.646-4.537,7.504-7.328,12.757-7.328h65.641V67.18L190.36,99.33z"/>
	</g>
</g>
<g>
	<g>
		<path d="M500.744,103.808L351.18,67.181v124.463l89.043,108.663H512V118.153C512,111.35,507.353,105.426,500.744,103.808z"/>
	</g>
</g>
<g>
	<g>
		<polygon points="264.483,211.692 190.359,338.761 190.359,444.818 321.641,412.668 321.641,211.692 		"/>
	</g>
</g>
<g>
	<g>
		<path d="M72.579,251.076H0v142.769c0,6.804,4.647,12.727,11.256,14.345l149.564,36.628V340.814L72.579,251.076z"/>
	</g>
</g>
<g>
	<g>
		<path d="M18.282,64.424c-4.404-1.079-9.061-0.073-12.631,2.726C2.084,69.949,0,74.233,0,78.769v142.769h78.769
			c3.96,0,7.754,1.59,10.53,4.413l71.521,72.734V99.33L18.282,64.424z"/>
	</g>
</g>
<g>
	<g>
		<path d="M433.231,329.845c-4.426,0-8.618-1.985-11.424-5.407l-70.627-86.19v174.421l142.539,34.908
			c1.162,0.285,2.34,0.424,3.512,0.424c3.273,0,6.491-1.088,9.118-3.15c3.568-2.8,5.652-7.083,5.652-11.619V329.845H433.231z"/>
	</g>
</g>
<g>
</g>
<g>
</g>
<g>
</g>
<g>
</g>
<g>
</g>
<g>
</g>
<g>
</g>
<g>
</g>
<g>
</g>
<g>
</g>
<g>
</g>
<g>
</g>
<g>
</g>
<g>
</g>
<g>
</g>
</svg>
