
<svg height='100px' width='100px'  fill="#FFFFFF" xmlns="http://www.w3.org/2000/svg" data-name="Layer 1" viewBox="0 0 100 100" x="0px" y="0px"><title>Artboard 415</title><path d="M7.56,72.49l1.74,3a11.24,11.24,0,0,0,13.88,4.89l4.87-1.9a35.66,35.66,0,0,0,8.25,4.79l.8,5.14A11.23,11.23,0,0,0,48.26,98h3.48a11.25,11.25,0,0,0,11.17-9.58l.79-5.14A35.66,35.66,0,0,0,72,78.49l4.87,1.9A11.24,11.24,0,0,0,90.7,75.5l1.74-3A11.23,11.23,0,0,0,89.72,58l-4-3.24a36,36,0,0,0,0-9.58l4-3.24A11.25,11.25,0,0,0,92.44,27.5l-1.74-3a11.26,11.26,0,0,0-13.88-4.88L72,21.51a35.66,35.66,0,0,0-8.25-4.79l-.79-5.14A11.25,11.25,0,0,0,51.74,2H48.26a11.25,11.25,0,0,0-11.17,9.58l-.79,5.14a35.66,35.66,0,0,0-8.25,4.79l-4.87-1.9A11.25,11.25,0,0,0,9.3,24.49l-1.74,3A11.25,11.25,0,0,0,10.28,42l4,3.24a36,36,0,0,0,0,9.58l-4,3.24A11.23,11.23,0,0,0,7.56,72.49Zm7.72-8.22,5.87-4.71a4,4,0,0,0,1.42-3.92,28.19,28.19,0,0,1,0-11.28,4,4,0,0,0-1.42-3.92l-5.87-4.71a3.29,3.29,0,0,1-.79-4.23l1.74-3a3.27,3.27,0,0,1,4.05-1.42l7.06,2.74a4,4,0,0,0,4.1-.73,27.73,27.73,0,0,1,9.72-5.63,4,4,0,0,0,2.69-3.19L45,12.8A3.28,3.28,0,0,1,48.26,10h3.48A3.28,3.28,0,0,1,55,12.8l1.15,7.46a4,4,0,0,0,2.69,3.19,27.73,27.73,0,0,1,9.72,5.63,4,4,0,0,0,4.1.73l7.06-2.74a3.27,3.27,0,0,1,4,1.42l1.74,3a3.29,3.29,0,0,1-.79,4.23l-5.87,4.71a4,4,0,0,0-1.42,3.92,28.19,28.19,0,0,1,0,11.28,4,4,0,0,0,1.42,3.92l5.87,4.71h0a3.28,3.28,0,0,1,.79,4.22l-1.74,3a3.27,3.27,0,0,1-4,1.43l-7.06-2.74a4,4,0,0,0-4.1.73,27.88,27.88,0,0,1-9.72,5.63,4,4,0,0,0-2.69,3.19L55,87.2A3.28,3.28,0,0,1,51.74,90H48.26A3.28,3.28,0,0,1,45,87.2l-1.15-7.46a4,4,0,0,0-2.69-3.19,27.73,27.73,0,0,1-9.72-5.63,4,4,0,0,0-2.65-1,3.85,3.85,0,0,0-1.45.28l-7.06,2.74a3.27,3.27,0,0,1-4.05-1.43l-1.74-3A3.28,3.28,0,0,1,15.28,64.27Z"></path><path d="M50,66A16,16,0,1,0,34,50,16,16,0,0,0,50,66Zm0-24a8,8,0,1,1-8,8A8,8,0,0,1,50,42Z"></path></svg>